<svg xmlns="http://www.w3.org/2000/svg" width="1200" height="630" viewBox="0 0 1200 630">
  <defs>
    <linearGradient id="starter-bg" x1="0%" y1="0%" x2="100%" y2="100%">
      <stop offset="0%" stop-color="#dcebe8"/>
      <stop offset="55%" stop-color="#eff3ee"/>
      <stop offset="100%" stop-color="#f6e6d1"/>
    </linearGradient>
    <filter id="starter-shadow" x="-10%" y="-10%" width="120%" height="120%">
      <feDropShadow dx="0" dy="24" stdDeviation="28" flood-color="#153029" flood-opacity="0.16"/>
    </filter>
  </defs>
  <rect width="1200" height="630" fill="url(#starter-bg)"/>
  <circle cx="1014" cy="116" r="90" fill="#f7ecd9" opacity="0.8"/>
  <circle cx="122" cy="112" r="74" fill="#d1e8e0" opacity="0.8"/>

  <g filter="url(#starter-shadow)">
    <rect x="72" y="70" width="1056" height="492" rx="30" fill="#fdfcf9"/>
  </g>

  <rect x="72" y="70" width="1056" height="70" rx="30" fill="#16352f"/>
  <text x="122" y="114" fill="#f4f5f0" font-family="ui-sans-serif, system-ui, sans-serif" font-size="24" font-weight="700">Starter</text>
  <text x="1018" y="114" text-anchor="end" fill="#d6e5dd" font-family="ui-sans-serif, system-ui, sans-serif" font-size="18">Docs • Post • Deploy optional</text>

  <rect x="108" y="176" width="244" height="330" rx="24" fill="#eef4ef" stroke="#d8e3dd"/>
  <rect x="140" y="208" width="92" height="28" rx="14" fill="#d8ece4"/>
  <text x="186" y="227" text-anchor="middle" fill="#245947" font-family="ui-sans-serif, system-ui, sans-serif" font-size="14" font-weight="700" letter-spacing="1.6">DOCS</text>
  <rect x="140" y="262" width="176" height="14" rx="7" fill="#204033"/>
  <rect x="140" y="294" width="148" height="12" rx="6" fill="#98aaa1"/>
  <rect x="140" y="326" width="168" height="64" rx="18" fill="#ffffff" stroke="#d6e1db"/>
  <rect x="140" y="408" width="168" height="64" rx="18" fill="#ffffff" stroke="#d6e1db"/>
  <text x="164" y="352" fill="#5a685f" font-family="ui-sans-serif, system-ui, sans-serif" font-size="16" font-weight="700">Quick start</text>
  <text x="164" y="434" fill="#5a685f" font-family="ui-sans-serif, system-ui, sans-serif" font-size="16" font-weight="700">Deployment guide</text>

  <rect x="382" y="176" width="388" height="330" rx="24" fill="#ffffff" stroke="#dde4dd"/>
  <rect x="416" y="210" width="106" height="28" rx="14" fill="#e8f0ec"/>
  <text x="469" y="229" text-anchor="middle" fill="#2b5e4e" font-family="ui-sans-serif, system-ui, sans-serif" font-size="14" font-weight="700" letter-spacing="1.8">STARTER</text>
  <text x="416" y="294" fill="#16251f" font-family="Georgia, 'Times New Roman', serif" font-size="48" font-weight="700">Launch docs and</text>
  <text x="416" y="348" fill="#16251f" font-family="Georgia, 'Times New Roman', serif" font-size="48" font-weight="700">a blog on day one.</text>
  <text x="416" y="388" fill="#5d675f" font-family="ui-sans-serif, system-ui, sans-serif" font-size="22">One docs section, one post, one local-first workflow.</text>
  <rect x="416" y="424" width="180" height="44" rx="22" fill="#204033"/>
  <text x="506" y="452" text-anchor="middle" fill="#f1f4ee" font-family="ui-sans-serif, system-ui, sans-serif" font-size="18" font-weight="700">Create starter</text>
  <rect x="612" y="424" width="126" height="44" rx="22" fill="#eef3ef" stroke="#d7e0d9"/>
  <text x="675" y="452" text-anchor="middle" fill="#406052" font-family="ui-sans-serif, system-ui, sans-serif" font-size="18" font-weight="700">Preview</text>

  <rect x="800" y="176" width="288" height="330" rx="24" fill="#fffaf3" stroke="#e9ddc8"/>
  <rect x="834" y="208" width="170" height="28" rx="14" fill="#f3e8d7"/>
  <text x="919" y="227" text-anchor="middle" fill="#7b5a35" font-family="ui-sans-serif, system-ui, sans-serif" font-size="14" font-weight="700" letter-spacing="1.6">DEPLOY PRESET</text>
  <rect x="834" y="260" width="220" height="86" rx="22" fill="#ffffff" stroke="#eadfcd"/>
  <text x="862" y="292" fill="#5f654f" font-family="ui-sans-serif, system-ui, sans-serif" font-size="16" font-weight="700">Cloudflare Pages</text>
  <text x="862" y="320" fill="#7d7a72" font-family="ui-sans-serif, system-ui, sans-serif" font-size="15">Alpha preset, never required</text>
  <rect x="834" y="374" width="220" height="98" rx="22" fill="#ffffff" stroke="#eadfcd"/>
  <text x="862" y="406" fill="#5f654f" font-family="ui-sans-serif, system-ui, sans-serif" font-size="16" font-weight="700">Workflow stays inspectable</text>
  <text x="862" y="434" fill="#7d7a72" font-family="ui-sans-serif, system-ui, sans-serif" font-size="15">Git diffs, Astro build, no hosted CMS</text>
</svg>
